<svg width="32" height="32" viewBox="0 0 32 32" fill="none" xmlns="http://www.w3.org/2000/svg">
<mask id="mask0_54_8" style="mask-type:luminance" maskUnits="userSpaceOnUse" x="0" y="0" width="32" height="32">
<path d="M23.8965 0.487033L16.0015 22.8865L8.10641 0.487033C7.87731 -0.162344 7.06894 -0.162344 6.83984 0.487033L0.0250048 19.8255C-0.0652107 20.0802 0.0997884 20.3564 0.341946 20.3564H8.20138C8.44235 20.3564 8.60735 20.0802 8.51832 19.8255L7.59836 17.2146C7.44286 16.774 7.06656 16.4843 6.64872 16.4843H4.87646L7.47372 9.11351L15.3676 31.513C15.5967 32.1623 16.4062 32.1623 16.6342 31.513L24.528 9.11351L27.1253 16.4843H25.353C24.9352 16.4843 24.5589 16.774 24.4022 17.2146L23.4822 19.8255C23.392 20.0802 23.5582 20.3564 23.7992 20.3564H31.6586C31.8996 20.3564 32.0646 20.0802 31.9755 19.8255L25.1595 0.487033C25.0456 0.162344 24.7856 0.000673563 24.5256 0.000673563C24.2657 0.000673563 24.0069 0.163691 23.8918 0.487033" fill="white"/>
</mask>
<g mask="url(#mask0_54_8)">
<path d="M16.0024 -18.3967L-14.3047 16.0007L16.0024 50.3982L46.3095 16.0007L16.0024 -18.3967Z" fill="white"/>
</g>
</svg>
